<svg width="300" height="300" viewBox="0 0 300 300" fill="none" xmlns="http://www.w3.org/2000/svg">
<g filter="url(#filter0_i_103_5)">
<rect width="300" height="300" rx="67" fill="white"/>
<g filter="url(#filter1_di_103_5)">
<path d="M149.699 224C141.951 224 135.472 223.263 130.261 221.788C125.185 220.313 120.976 218.906 117.637 217.565C114.297 216.225 111.358 215.554 108.819 215.554C106.815 215.554 105.212 216.225 104.01 217.565C102.807 218.906 101.872 220.984 101.204 223.799H99C99.2672 220.447 99.4008 216.56 99.4008 212.136C99.5344 207.578 99.6012 201.813 99.6012 194.842C99.7348 187.871 99.8016 178.957 99.8016 168.098H102.006C103.342 185.123 107.884 198.261 115.633 207.511C123.381 216.761 133.668 221.386 146.493 221.386C155.31 221.386 162.324 219.04 167.534 214.348C172.878 209.656 175.55 203.221 175.55 195.043C175.55 189.949 174.348 185.458 171.943 181.571C169.538 177.549 165.798 173.862 160.721 170.511C155.644 167.159 149.031 163.875 140.882 160.658C131.53 156.904 123.849 152.815 117.837 148.391C111.959 143.967 107.617 139.007 104.811 133.511C102.139 128.014 100.804 121.915 100.804 115.212C100.804 107.168 102.674 100.264 106.415 94.5C110.155 88.6014 115.432 84.0435 122.246 80.8261C129.193 77.6087 137.342 76 146.694 76C153.774 76 159.585 76.7373 164.128 78.212C168.67 79.5525 172.477 80.9601 175.55 82.4348C178.756 83.7754 181.629 84.4456 184.167 84.4456C186.305 84.4456 187.974 83.8424 189.177 82.6359C190.379 81.2953 191.314 79.1504 191.982 76.2011H194.187C193.919 79.2844 193.652 82.7029 193.385 86.4565C193.251 90.0761 193.118 94.8351 192.984 100.734C192.984 106.498 192.984 114.139 192.984 123.658H190.78C189.578 109.984 185.236 99.058 177.754 90.8804C170.273 82.5688 160.921 78.413 149.699 78.413C141.817 78.413 135.605 80.558 131.063 84.8478C126.654 89.1377 124.45 94.9022 124.45 102.141C124.45 106.833 125.585 111.056 127.857 114.81C130.128 118.429 133.935 121.915 139.279 125.266C144.756 128.618 152.104 132.237 161.322 136.125C175.75 142.024 185.971 148.592 191.982 155.832C197.994 162.937 201 171.65 201 181.973C201 194.976 196.391 205.232 187.173 212.739C178.088 220.246 165.597 224 149.699 224Z" fill="url(#paint0_linear_103_5)"/>
</g>
</g>
<defs>
<filter id="filter0_i_103_5" x="0" y="0" width="300" height="300" filterUnits="userSpaceOnUse" color-interpolation-filters="sRGB">
<feFlood flood-opacity="0" result="BackgroundImageFix"/>
<feBlend mode="normal" in="SourceGraphic" in2="BackgroundImageFix" result="shape"/>
<feColorMatrix in="SourceAlpha" type="matrix" values="0 0 0 0 0 0 0 0 0 0 0 0 0 0 0 0 0 0 127 0" result="hardAlpha"/>
<feOffset/>
<feGaussianBlur stdDeviation="10.6"/>
<feComposite in2="hardAlpha" operator="arithmetic" k2="-1" k3="1"/>
<feColorMatrix type="matrix" values="0 0 0 0 0 0 0 0 0 0 0 0 0 0 0 0 0 0 0.25 0"/>
<feBlend mode="normal" in2="shape" result="effect1_innerShadow_103_5"/>
</filter>
<filter id="filter1_di_103_5" x="60.2" y="37.2" width="179.6" height="225.6" filterUnits="userSpaceOnUse" color-interpolation-filters="sRGB">
<feFlood flood-opacity="0" result="BackgroundImageFix"/>
<feColorMatrix in="SourceAlpha" type="matrix" values="0 0 0 0 0 0 0 0 0 0 0 0 0 0 0 0 0 0 127 0" result="hardAlpha"/>
<feOffset/>
<feGaussianBlur stdDeviation="19.4"/>
<feComposite in2="hardAlpha" operator="out"/>
<feColorMatrix type="matrix" values="0 0 0 0 1 0 0 0 0 1 0 0 0 0 1 0 0 0 1 0"/>
<feBlend mode="normal" in2="BackgroundImageFix" result="effect1_dropShadow_103_5"/>
<feBlend mode="normal" in="SourceGraphic" in2="effect1_dropShadow_103_5" result="shape"/>
<feColorMatrix in="SourceAlpha" type="matrix" values="0 0 0 0 0 0 0 0 0 0 0 0 0 0 0 0 0 0 127 0" result="hardAlpha"/>
<feOffset dy="4"/>
<feGaussianBlur stdDeviation="8.15"/>
<feComposite in2="hardAlpha" operator="arithmetic" k2="-1" k3="1"/>
<feColorMatrix type="matrix" values="0 0 0 0 0 0 0 0 0 0 0 0 0 0 0 0 0 0 0.52 0"/>
<feBlend mode="normal" in2="shape" result="effect2_innerShadow_103_5"/>
</filter>
<linearGradient id="paint0_linear_103_5" x1="91.5" y1="61" x2="201" y2="234" gradientUnits="userSpaceOnUse">
<stop/>
<stop offset="1" stop-color="#666666"/>
</linearGradient>
</defs>
</svg>
